<svg width="1584" height="396" viewBox="0 0 1584 396" xmlns="http://www.w3.org/2000/svg">
    <defs>
      <linearGradient id="bg" x1="0" y1="0" x2="1584" y2="396"><stop stop-color="#F7F2E8"/><stop offset=".64" stop-color="#EEF5F0"/><stop offset="1" stop-color="#D4E8D9"/></linearGradient>
      <pattern id="grain" width="36" height="36" patternUnits="userSpaceOnUse"><path d="M0 36H36M36 0V36" stroke="#1F3A2E" stroke-opacity=".045"/></pattern>
    </defs>
    <rect width="1584" height="396" fill="url(#bg)"/>
    <rect width="1584" height="396" fill="url(#grain)"/>
    <rect x="0" y="132" width="568" height="264" fill="#E8DCC4" opacity=".38"/>
    <path d="M508 0H1584V396H430C604 318 676 172 508 0Z" fill="#1F3A2E" opacity=".055"/>
    <g transform="translate(610 82)"><g transform="translate(0 -31) scale(1.1)">
    <path d="M 19 20 L 33 20 L 26 33 Z" fill="#1F3A2E" stroke="#1F3A2E" stroke-width="3.2" stroke-linejoin="round" stroke-linecap="round"/>
    <path d="M 13 9 L 23 9 L 18 20 Z" fill="#5A8F7B" stroke="#5A8F7B" stroke-width="2.6" stroke-linejoin="round" stroke-linecap="round"/>
  </g><text x="58" y="0" fill="#1F1D1A" font-family="Instrument Serif, Georgia, serif" font-size="42" font-weight="500" letter-spacing="0">Safe</text></g>
    <g transform="translate(610 128)">
      <text x="0" y="48" fill="#1F1D1A" font-family="Inter, -apple-system, BlinkMacSystemFont, 'Segoe UI', sans-serif" font-size="55" font-weight="850">J'ai tenu leurs livres.</text>
      <text x="0" y="112" fill="#1F1D1A" font-family="Inter, -apple-system, BlinkMacSystemFont, 'Segoe UI', sans-serif" font-size="55" font-weight="850">Je construis leur logiciel.</text>
      <rect x="0" y="150" width="620" height="2" fill="#1F3A2E" opacity=".35"/>
      <text x="0" y="204" fill="#1F3A2E" font-family="Inter, -apple-system, BlinkMacSystemFont, 'Segoe UI', sans-serif" font-size="30" font-weight="650">L'OS du cabinet d'avocats solo</text>
    </g>
  </svg>