<svg width="1584" height="396" viewBox="0 0 1584 396" xmlns="http://www.w3.org/2000/svg">
    <defs>
      <linearGradient id="bg" x1="0" y1="0" x2="1584" y2="396"><stop stop-color="#FCFAF4"/><stop offset="1" stop-color="#F7F2E8"/></linearGradient>
      <filter id="shadow"><feDropShadow dx="0" dy="18" stdDeviation="18" flood-color="#1F3A2E" flood-opacity=".18"/></filter>
    </defs>
    <rect width="1584" height="396" fill="url(#bg)"/>
    <rect x="0" y="132" width="568" height="264" fill="#E8DCC4" opacity=".46"/>
    <rect x="568" y="0" width="1016" height="396" fill="#EEF5F0" opacity=".72"/>
    <g transform="translate(600 80)"><g transform="translate(0 -31) scale(1.1)">
    <path d="M 19 20 L 33 20 L 26 33 Z" fill="#1F3A2E" stroke="#1F3A2E" stroke-width="3.2" stroke-linejoin="round" stroke-linecap="round"/>
    <path d="M 13 9 L 23 9 L 18 20 Z" fill="#5A8F7B" stroke="#5A8F7B" stroke-width="2.6" stroke-linejoin="round" stroke-linecap="round"/>
  </g><text x="58" y="0" fill="#1F1D1A" font-family="Instrument Serif, Georgia, serif" font-size="42" font-weight="500" letter-spacing="0">Safe</text></g>
    <g transform="translate(600 126)">
      <text x="0" y="50" fill="#1F1D1A" font-family="Inter, -apple-system, BlinkMacSystemFont, 'Segoe UI', sans-serif" font-size="56" font-weight="870">L'OS du cabinet</text>
      <text x="0" y="116" fill="#1F1D1A" font-family="Inter, -apple-system, BlinkMacSystemFont, 'Segoe UI', sans-serif" font-size="56" font-weight="870">d'avocats solo</text>
      <text x="0" y="176" fill="#2B4A3E" font-family="Inter, -apple-system, BlinkMacSystemFont, 'Segoe UI', sans-serif" font-size="28" font-weight="560">Facturation. Comptabilité. Dossiers.</text>
      <text x="0" y="224" fill="#1F3A2E" font-family="Inter, -apple-system, BlinkMacSystemFont, 'Segoe UI', sans-serif" font-size="24" font-weight="740">Depuis la chaise du teneur de livres.</text>
    </g>
    <g transform="translate(1210 64)" filter="url(#shadow)">
      <rect width="244" height="222" rx="24" fill="#1F3A2E"/>
      <rect x="26" y="28" width="138" height="13" rx="7" fill="#8EB69B"/>
      <rect x="26" y="70" width="84" height="62" rx="14" fill="#D4E8D9" opacity=".19"/>
      <rect x="130" y="70" width="88" height="62" rx="14" fill="#D4E8D9" opacity=".13"/>
      <rect x="26" y="158" width="192" height="12" rx="6" fill="#F7F2E8" opacity=".35"/>
      <rect x="26" y="188" width="152" height="12" rx="6" fill="#F7F2E8" opacity=".22"/>
    </g>
  </svg>